<?xml version="1.0" encoding="UTF-8"?>
<svg xmlns="http://www.w3.org/2000/svg" width="1600" height="1000" viewBox="0 0 1600 1000">
<defs>
  <marker id="arrow" markerWidth="12" markerHeight="12" refX="6" refY="6" orient="auto-start-reverse">
    <path d="M 0 0 L 12 6 L 0 12 z" fill="#171717"/>
  </marker>
  <marker id="dot" markerWidth="8" markerHeight="8" refX="4" refY="4">
    <circle cx="4" cy="4" r="3" fill="#171717"/>
  </marker>
  <filter id="softShadow" x="-20%" y="-20%" width="140%" height="140%">
    <feDropShadow dx="0" dy="10" stdDeviation="7" flood-color="#000" flood-opacity="0.14"/>
  </filter>
  <pattern id="woodGrain" width="90" height="26" patternUnits="userSpaceOnUse">
    <rect width="90" height="26" fill="#8a5633"/>
    <path d="M4 8 C25 2, 48 14, 88 7 M0 21 C25 15, 53 27, 92 19" fill="none" stroke="#a66c42" stroke-width="3" opacity="0.6"/>
  </pattern>
  <style>
    svg { background: #fffdf8; font-family: Inter, Avenir, Helvetica, Arial, sans-serif; }
    rect, path, line, circle, ellipse, polyline, polygon { vector-effect: non-scaling-stroke; }
  </style>
</defs>
<rect x="0" y="0" width="1600" height="1000" fill="#fffdf8" stroke="none"/>
<circle cx="92" cy="86" r="42" fill="#bf8a2c" stroke="#171717" stroke-width="3"/><text x="92" y="99" font-size="42" font-weight="800" fill="#fffdf8" text-anchor="middle">3</text><text x="158" y="75" font-size="42" font-weight="800" fill="#171717" >Cable Route + Test</text><text x="160" y="112" font-size="23" font-weight="600" fill="#5e5b55" >For electrician</text>
<rect x="330" y="220" width="880" height="570" fill="#eadfce" stroke="#171717" stroke-width="3" rx="2" filter="url(#softShadow)"/><path d="M350 520 C470 500, 594 405, 760 432" fill="none" stroke="#b9bdc1" stroke-width="34" stroke-linecap="round"/><path d="M350 520 C470 500, 594 405, 760 432" fill="none" stroke="#171717" stroke-width="2" stroke-linecap="round"/><rect x="120" y="420" width="230" height="200" fill="#e7e7e1" stroke="#171717" stroke-width="3" rx="10"/><text x="235" y="462" font-size="24" font-weight="800" fill="#171717" text-anchor="middle">SERVER NICHE</text><rect x="172" y="493" width="128" height="62" fill="#30363d" stroke="#171717" stroke-width="3" rx="8"/><text x="236" y="533" font-size="24" font-weight="800" fill="#fffdf8" text-anchor="middle">Beelink</text><text x="144" y="590" font-size="21" font-weight="700" fill="#171717" >HDMI 2</text><text x="245" y="590" font-size="21" font-weight="700" fill="#171717" >USB-A</text><rect x="760" y="330" width="280" height="195" fill="#f4ecdf" stroke="#171717" stroke-width="3"/><path d="M300 512 C444 500, 584 408, 766 420 C838 430, 838 490, 784 498 C742 504, 744 452, 818 448" fill="none" stroke="#6f7478" stroke-width="8" stroke-linecap="round"/><path d="M300 532 C456 518, 590 428, 774 442 C870 452, 882 522, 800 522 C744 522, 746 472, 826 474" fill="none" stroke="#8d949a" stroke-width="8" stroke-linecap="round"/><path d="M300 548 C450 536, 588 458, 770 466 C858 470, 860 545, 790 548" fill="none" stroke="#7d837d" stroke-width="6" stroke-linecap="round" stroke-dasharray="14 10"/><rect x="1005" y="356" width="258" height="170" fill="#1f2933" stroke="#171717" stroke-width="3" rx="12"/><rect x="1024" y="374" width="219" height="138" fill="#e8f3f5" stroke="#171717" stroke-width="2"/><text x="1134" y="435" font-size="42" font-weight="900" fill="#73946f" text-anchor="middle">TEST</text><path d="M1088 461 L1124 495 L1184 421" fill="none" stroke="#73946f" stroke-width="12" stroke-linecap="round" stroke-linejoin="round"/><rect x="1010" y="220" width="310" height="86" fill="#fffdf8" stroke="#171717" stroke-width="2" rx="8"/><line x1="1032" y1="250" x2="1090" y2="250" stroke="#6f7478" stroke-width="8"/><text x="1106" y="258" font-size="22" font-weight="700" fill="#171717" >HDMI</text><line x1="1032" y1="280" x2="1090" y2="280" stroke="#8d949a" stroke-width="8"/><text x="1106" y="288" font-size="22" font-weight="700" fill="#171717" >USB touch + 5V</text><line x1="810" y1="515" x2="1088" y2="600" stroke="#171717" stroke-width="2" marker-end="url(#dot)"/><rect x="1104" y="572" width="241.70000000000002" height="69.03999999999999" fill="#fffdf8" stroke="#171717" stroke-width="2" rx="8"/><text x="1122" y="605" font-size="22" font-weight="600" fill="#171717" >200 mm cable loop</text><text x="1122" y="630.08" font-size="22" font-weight="600" fill="#171717" >inside pocket</text><line x1="500" y1="420" x2="596" y2="306" stroke="#171717" stroke-width="2" marker-end="url(#dot)"/><rect x="612" y="278" width="205.4" height="94.55999999999999" fill="#fffdf8" stroke="#171717" stroke-width="2" rx="8"/><text x="630" y="311" font-size="22" font-weight="600" fill="#171717" >1 x HDMI</text><text x="630" y="336.08" font-size="22" font-weight="600" fill="#171717" >1 x USB</text><text x="630" y="361.15999999999997" font-size="22" font-weight="600" fill="#171717" >1 x spare Cat6</text><line x1="1132" y1="526" x2="1258" y2="698" stroke="#171717" stroke-width="2" marker-end="url(#dot)"/><rect x="1274" y="670" width="290.1" height="69.03999999999999" fill="#fffdf8" stroke="#171717" stroke-width="2" rx="8"/><text x="1292" y="703" font-size="22" font-weight="600" fill="#171717" >Test display + touch</text><text x="1292" y="728.08" font-size="22" font-weight="600" fill="#171717" >before closing cavity</text><rect x="100" y="700" width="350.6" height="94.55999999999999" fill="#fffdf8" stroke="#171717" stroke-width="2" rx="8"/><text x="118" y="733" font-size="22" font-weight="600" fill="#171717" >Electrician note:</text><text x="118" y="758.08" font-size="22" font-weight="600" fill="#171717" >no power socket at screen;</text><text x="118" y="783.16" font-size="22" font-weight="600" fill="#171717" >USB powers screen</text>
<text x="1500" y="950" text-anchor="end" font-size="22" font-weight="600" fill="#5e5b55">Waveshare 10.1 in staircase panel install</text>
</svg>