<?xml version="1.0" encoding="UTF-8"?>
<svg xmlns="http://www.w3.org/2000/svg" width="1600" height="1000" viewBox="0 0 1600 1000">
<defs>
  <marker id="arrow" markerWidth="12" markerHeight="12" refX="6" refY="6" orient="auto-start-reverse">
    <path d="M 0 0 L 12 6 L 0 12 z" fill="#171717"/>
  </marker>
  <marker id="dot" markerWidth="8" markerHeight="8" refX="4" refY="4">
    <circle cx="4" cy="4" r="3" fill="#171717"/>
  </marker>
  <filter id="softShadow" x="-20%" y="-20%" width="140%" height="140%">
    <feDropShadow dx="0" dy="10" stdDeviation="7" flood-color="#000" flood-opacity="0.14"/>
  </filter>
  <pattern id="woodGrain" width="90" height="26" patternUnits="userSpaceOnUse">
    <rect width="90" height="26" fill="#8a5633"/>
    <path d="M4 8 C25 2, 48 14, 88 7 M0 21 C25 15, 53 27, 92 19" fill="none" stroke="#a66c42" stroke-width="3" opacity="0.6"/>
  </pattern>
  <style>
    svg { background: #fffdf8; font-family: Inter, Avenir, Helvetica, Arial, sans-serif; }
    rect, path, line, circle, ellipse, polyline, polygon { vector-effect: non-scaling-stroke; }
  </style>
</defs>
<rect x="0" y="0" width="1600" height="1000" fill="#fffdf8" stroke="none"/>
<circle cx="92" cy="86" r="42" fill="#bf8a2c" stroke="#171717" stroke-width="3"/><text x="92" y="99" font-size="42" font-weight="800" fill="#fffdf8" text-anchor="middle">6</text><text x="158" y="75" font-size="42" font-weight="800" fill="#171717" >Final + Service</text><text x="160" y="112" font-size="23" font-weight="600" fill="#5e5b55" >For homeowner + all trades</text>
<rect x="115" y="240" width="560" height="555" fill="#eadfce" stroke="#171717" stroke-width="3" rx="2" filter="url(#softShadow)"/><rect x="250" y="335" width="320" height="235" fill="url(#woodGrain)" stroke="#171717" stroke-width="3" rx="10"/><rect x="300" y="382" width="220" height="140" fill="#e8f3f5" stroke="#171717" stroke-width="3" rx="3"/><text x="410" y="445" font-size="30" font-weight="800" fill="#6f94aa" text-anchor="middle">Dashboard</text><circle cx="535" cy="543" r="9" fill="#bf8a2c" stroke="#171717" stroke-width="2"/><rect x="379" y="675" width="67" height="75" fill="#f7f3ea" stroke="#171717" stroke-width="3" rx="5"/><rect x="391" y="689" width="17" height="47" fill="#ffffff" stroke="#171717" stroke-width="2" rx="3"/><rect x="417" y="689" width="17" height="47" fill="#ffffff" stroke="#171717" stroke-width="2" rx="3"/><text x="410" y="820" font-size="24" font-weight="800" fill="#5e5b55" text-anchor="middle">finished wall</text><rect x="855" y="235" width="400" height="560" fill="#eadfce" stroke="#171717" stroke-width="3" rx="2" filter="url(#softShadow)"/><rect x="920" y="355" width="280" height="195" fill="#f4ecdf" stroke="#171717" stroke-width="3"/><rect x="660" y="344" width="320" height="235" fill="url(#woodGrain)" stroke="#171717" stroke-width="3" rx="10" filter="url(#softShadow)"/><rect x="710" y="391" width="220" height="140" fill="#e8f3f5" stroke="#171717" stroke-width="3" rx="3"/><path d="M920 465 C855 428, 803 538, 950 535 C1010 532, 1030 484, 980 450" fill="none" stroke="#6f7478" stroke-width="8" stroke-linecap="round"/><path d="M918 496 C850 486, 830 595, 965 584 C1018 580, 1034 530, 985 502" fill="none" stroke="#8d949a" stroke-width="8" stroke-linecap="round"/><line x1="980" y1="462" x2="830" y2="462" stroke="#171717" stroke-width="3" marker-end="url(#arrow)"/><line x1="660" y1="315" x2="855" y2="315" stroke="#171717" stroke-width="2" marker-start="url(#arrow)" marker-end="url(#arrow)"/><line x1="660" y1="300" x2="660" y2="330" stroke="#171717" stroke-width="2"/><line x1="855" y1="300" x2="855" y2="330" stroke="#171717" stroke-width="2"/><text x="757.5" y="299" font-size="24" font-weight="700" fill="#171717" text-anchor="middle">pull forward about 150 mm</text><text x="816" y="676" font-size="24" font-weight="800" fill="#5e5b55" text-anchor="middle">service position</text><path d="M620 608 C640 585, 668 594, 670 620 L672 664 C673 686, 649 694, 636 677 L602 632 C592 619, 606 605, 620 608 Z" fill="#fff4e6" stroke="#171717" stroke-width="3"/><path d="M661 615 L715 578" fill="none" stroke="#171717" stroke-width="12" stroke-linecap="round"/><path d="M645 612 L702 565" fill="none" stroke="#171717" stroke-width="10" stroke-linecap="round"/><path d="M634 626 L684 590" fill="none" stroke="#171717" stroke-width="9" stroke-linecap="round"/><line x1="535" y1="543" x2="640" y2="225" stroke="#171717" stroke-width="2" marker-end="url(#dot)"/><rect x="656" y="197" width="217.50000000000003" height="69.03999999999999" fill="#fffdf8" stroke="#171717" stroke-width="2" rx="8"/><text x="674" y="230" font-size="22" font-weight="600" fill="#171717" >Small brass NFC</text><text x="674" y="255.07999999999998" font-size="22" font-weight="600" fill="#171717" >tap marker</text><line x1="410" y1="675" x2="280" y2="662" stroke="#171717" stroke-width="2" marker-end="url(#dot)"/><rect x="78" y="616" width="217.50000000000003" height="69.03999999999999" fill="#fffdf8" stroke="#171717" stroke-width="2" rx="8"/><text x="96" y="649" font-size="22" font-weight="600" fill="#171717" >Existing switch</text><text x="96" y="674.08" font-size="22" font-weight="600" fill="#171717" >stays below</text><line x1="946" y1="535" x2="1280" y2="600" stroke="#171717" stroke-width="2" marker-end="url(#dot)"/><rect x="1296" y="572" width="229.60000000000002" height="69.03999999999999" fill="#fffdf8" stroke="#171717" stroke-width="2" rx="8"/><text x="1314" y="605" font-size="22" font-weight="600" fill="#171717" >Slack loop stays</text><text x="1314" y="630.08" font-size="22" font-weight="600" fill="#171717" >plugged in</text><rect x="1244" y="310" width="273.6" height="129.35999999999999" fill="#fffdf8" stroke="#171717" stroke-width="2" rx="8"/><text x="1262" y="343" font-size="24" font-weight="600" fill="#171717" >Service:</text><text x="1262" y="370.36" font-size="24" font-weight="600" fill="#171717" >pull straight out,</text><text x="1262" y="397.72" font-size="24" font-weight="600" fill="#171717" >swap part,</text><text x="1262" y="425.08" font-size="24" font-weight="600" fill="#171717" >push back in</text><text x="930" y="825" font-size="26" font-weight="800" fill="#171717" text-anchor="middle">Magnets re-engage when pushed flush</text>
<text x="1500" y="950" text-anchor="end" font-size="22" font-weight="600" fill="#5e5b55">Waveshare 10.1 in staircase panel install</text>
</svg>