<?xml version="1.0" encoding="UTF-8"?>
<svg xmlns="http://www.w3.org/2000/svg" width="1600" height="1000" viewBox="0 0 1600 1000">
<defs>
  <marker id="arrow" markerWidth="12" markerHeight="12" refX="6" refY="6" orient="auto-start-reverse">
    <path d="M 0 0 L 12 6 L 0 12 z" fill="#171717"/>
  </marker>
  <marker id="dot" markerWidth="8" markerHeight="8" refX="4" refY="4">
    <circle cx="4" cy="4" r="3" fill="#171717"/>
  </marker>
  <filter id="softShadow" x="-20%" y="-20%" width="140%" height="140%">
    <feDropShadow dx="0" dy="10" stdDeviation="7" flood-color="#000" flood-opacity="0.14"/>
  </filter>
  <pattern id="woodGrain" width="90" height="26" patternUnits="userSpaceOnUse">
    <rect width="90" height="26" fill="#8a5633"/>
    <path d="M4 8 C25 2, 48 14, 88 7 M0 21 C25 15, 53 27, 92 19" fill="none" stroke="#a66c42" stroke-width="3" opacity="0.6"/>
  </pattern>
  <style>
    svg { background: #fffdf8; font-family: Inter, Avenir, Helvetica, Arial, sans-serif; }
    rect, path, line, circle, ellipse, polyline, polygon { vector-effect: non-scaling-stroke; }
  </style>
</defs>
<rect x="0" y="0" width="1600" height="1000" fill="#fffdf8" stroke="none"/>
<circle cx="92" cy="86" r="42" fill="#bf8a2c" stroke="#171717" stroke-width="3"/><text x="92" y="99" font-size="42" font-weight="800" fill="#fffdf8" text-anchor="middle">2</text><text x="158" y="75" font-size="42" font-weight="800" fill="#171717" >Masonry Pocket</text><text x="160" y="112" font-size="23" font-weight="600" fill="#5e5b55" >For mason</text>
<polygon points="330,250 1020,250 1210,360 520,360" fill="#eadfce" stroke="#171717" stroke-width="3"/><polygon points="330,250 520,360 520,735 330,625" fill="#d9c9b5" stroke="#171717" stroke-width="3"/><polygon points="520,360 1210,360 1210,735 520,735" fill="#eadfce" stroke="#171717" stroke-width="3"/><polygon points="1018,456 1126,520 1126,716 1018,652" fill="#cdb9a0" stroke="#171717" stroke-width="2" opacity="0.86"/><line x1="952" y1="392" x2="1018" y2="392" stroke="#171717" stroke-width="2" marker-start="url(#arrow)" marker-end="url(#arrow)"/><line x1="952" y1="377" x2="952" y2="407" stroke="#171717" stroke-width="2"/><line x1="1018" y1="377" x2="1018" y2="407" stroke="#171717" stroke-width="2"/><text x="985" y="376" font-size="24" font-weight="700" fill="#171717" text-anchor="middle">80 mm cut depth</text><line x1="1018" y1="750" x2="1126" y2="750" stroke="#171717" stroke-width="2" marker-start="url(#arrow)" marker-end="url(#arrow)"/><line x1="1018" y1="735" x2="1018" y2="765" stroke="#171717" stroke-width="2"/><line x1="1126" y1="735" x2="1126" y2="765" stroke="#171717" stroke-width="2"/><text x="1072" y="786" font-size="24" font-weight="700" fill="#171717" text-anchor="middle">150 mm masonry remains</text><line x1="952" y1="815" x2="1126" y2="815" stroke="#171717" stroke-width="2" marker-start="url(#arrow)" marker-end="url(#arrow)"/><line x1="952" y1="800" x2="952" y2="830" stroke="#171717" stroke-width="2"/><line x1="1126" y1="800" x2="1126" y2="830" stroke="#171717" stroke-width="2"/><text x="1039" y="851" font-size="24" font-weight="700" fill="#171717" text-anchor="middle">230 mm wall thickness</text><polygon points="670,418 952,418 952,614 670,614" fill="#f4ecdf" stroke="#171717" stroke-width="3"/><polygon points="952,418 1018,456 1018,652 952,614" fill="#ddd0bd" stroke="#171717" stroke-width="3"/><polygon points="670,418 736,456 1018,456 952,418" fill="#efe5d7" stroke="#171717" stroke-width="3"/><rect x="697" y="446" width="232" height="140" fill="#fff7ec" stroke="#171717" stroke-width="2" stroke-dasharray="8 8"/><path d="M706 458 L920 458 L920 574 L706 574 Z" fill="none" stroke="#171717" stroke-width="2"/><line x1="706" y1="478" x2="920" y2="478" stroke="#9aa1a7" stroke-width="1.5"/><line x1="706" y1="498" x2="920" y2="498" stroke="#9aa1a7" stroke-width="1.5"/><line x1="706" y1="518" x2="920" y2="518" stroke="#9aa1a7" stroke-width="1.5"/><line x1="706" y1="538" x2="920" y2="538" stroke="#9aa1a7" stroke-width="1.5"/><line x1="706" y1="558" x2="920" y2="558" stroke="#9aa1a7" stroke-width="1.5"/><line x1="672" y1="418" x2="420" y2="390" stroke="#171717" stroke-width="2" marker-end="url(#dot)"/><rect x="130" y="362" width="205.4" height="69.03999999999999" fill="#fffdf8" stroke="#171717" stroke-width="2" rx="8"/><text x="148" y="395" font-size="22" font-weight="600" fill="#171717" >Pocket opening</text><text x="148" y="420.08" font-size="22" font-weight="600" fill="#171717" >280 x 195 mm</text><line x1="802" y1="520" x2="420" y2="610" stroke="#171717" stroke-width="2" marker-end="url(#dot)"/><rect x="130" y="582" width="314.3" height="69.03999999999999" fill="#fffdf8" stroke="#171717" stroke-width="2" rx="8"/><text x="148" y="615" font-size="22" font-weight="600" fill="#171717" >Smooth plaster inside</text><text x="148" y="640.08" font-size="22" font-weight="600" fill="#171717" >or 6 mm black ply liner</text><line x1="1058" y1="594" x2="1170" y2="500" stroke="#171717" stroke-width="2" marker-end="url(#dot)"/><rect x="1186" y="472" width="314.3" height="69.03999999999999" fill="#fffdf8" stroke="#171717" stroke-width="2" rx="8"/><text x="1204" y="505" font-size="22" font-weight="600" fill="#171717" >Do not cut deeper</text><text x="1204" y="530.08" font-size="22" font-weight="600" fill="#171717" >150 mm wall stays solid</text><rect x="122" y="760" width="350.6" height="94.55999999999999" fill="#fffdf8" stroke="#171717" stroke-width="2" rx="8"/><text x="140" y="793" font-size="22" font-weight="600" fill="#171717" >Critical for mason:</text><text x="140" y="818.08" font-size="22" font-weight="600" fill="#171717" >square corners, flat back,</text><text x="140" y="843.16" font-size="22" font-weight="600" fill="#171717" >no loose plaster dust</text>
<text x="1500" y="950" text-anchor="end" font-size="22" font-weight="600" fill="#5e5b55">Waveshare 10.1 in staircase panel install</text>
</svg>