<?xml version="1.0" encoding="UTF-8"?>
<svg xmlns="http://www.w3.org/2000/svg" width="1600" height="1000" viewBox="0 0 1600 1000">
<defs>
  <marker id="arrow" markerWidth="12" markerHeight="12" refX="6" refY="6" orient="auto-start-reverse">
    <path d="M 0 0 L 12 6 L 0 12 z" fill="#171717"/>
  </marker>
  <marker id="dot" markerWidth="8" markerHeight="8" refX="4" refY="4">
    <circle cx="4" cy="4" r="3" fill="#171717"/>
  </marker>
  <filter id="softShadow" x="-20%" y="-20%" width="140%" height="140%">
    <feDropShadow dx="0" dy="10" stdDeviation="7" flood-color="#000" flood-opacity="0.14"/>
  </filter>
  <pattern id="woodGrain" width="90" height="26" patternUnits="userSpaceOnUse">
    <rect width="90" height="26" fill="#8a5633"/>
    <path d="M4 8 C25 2, 48 14, 88 7 M0 21 C25 15, 53 27, 92 19" fill="none" stroke="#a66c42" stroke-width="3" opacity="0.6"/>
  </pattern>
  <style>
    svg { background: #fffdf8; font-family: Inter, Avenir, Helvetica, Arial, sans-serif; }
    rect, path, line, circle, ellipse, polyline, polygon { vector-effect: non-scaling-stroke; }
  </style>
</defs>
<rect x="0" y="0" width="1600" height="1000" fill="#fffdf8" stroke="none"/>
<circle cx="92" cy="86" r="42" fill="#bf8a2c" stroke="#171717" stroke-width="3"/><text x="92" y="99" font-size="42" font-weight="800" fill="#fffdf8" text-anchor="middle">1</text><text x="158" y="75" font-size="42" font-weight="800" fill="#171717" >Wall Set-Out</text><text x="160" y="112" font-size="23" font-weight="600" fill="#5e5b55" >For mason + electrician + homeowner</text>
<rect x="210" y="175" width="1040" height="650" fill="#eadfce" stroke="#171717" stroke-width="3" rx="2" filter="url(#softShadow)"/><line x1="150" y1="825" x2="1320" y2="825" stroke="#171717" stroke-width="3"/><path d="M300 625 C405 585, 465 502, 610 392" fill="none" stroke="#b9bdc1" stroke-width="26" stroke-linecap="round"/><path d="M300 625 C405 585, 465 502, 610 392" fill="none" stroke="#171717" stroke-width="2" stroke-linecap="round"/><rect x="245" y="590" width="110" height="85" fill="#d8d8d6" stroke="#171717" stroke-width="3" rx="8"/><text x="260" y="625" font-size="21" font-weight="700" fill="#171717" >server</text><text x="260" y="649.78" font-size="21" font-weight="700" fill="#171717" >niche</text><rect x="610" y="278" width="280" height="195" fill="#f4ecdf" stroke="#171717" stroke-width="3"/><rect x="621" y="291" width="258" height="170" fill="#00000008" stroke="#1f2933" stroke-width="2" stroke-dasharray="8 7"/><line x1="750" y1="245" x2="750" y2="505" stroke="#171717" stroke-width="2" stroke-dasharray="9 9"/><line x1="565" y1="376" x2="935" y2="376" stroke="#171717" stroke-width="2" stroke-dasharray="9 9"/><circle cx="750" cy="376" r="7" fill="#bf8a2c" stroke="#171717" stroke-width="2"/><rect x="716" y="640" width="67" height="75" fill="#f7f3ea" stroke="#171717" stroke-width="3" rx="5"/><rect x="728" y="654" width="17" height="47" fill="#ffffff" stroke="#171717" stroke-width="2" rx="3"/><rect x="754" y="654" width="17" height="47" fill="#ffffff" stroke="#171717" stroke-width="2" rx="3"/><line x1="610" y1="250" x2="890" y2="250" stroke="#171717" stroke-width="2" marker-start="url(#arrow)" marker-end="url(#arrow)"/><line x1="610" y1="235" x2="610" y2="265" stroke="#171717" stroke-width="2"/><line x1="890" y1="235" x2="890" y2="265" stroke="#171717" stroke-width="2"/><text x="750" y="234" font-size="24" font-weight="700" fill="#171717" text-anchor="middle">280 mm cavity width</text><line x1="925" y1="278" x2="925" y2="473" stroke="#171717" stroke-width="2" marker-start="url(#arrow)" marker-end="url(#arrow)"/><line x1="910" y1="278" x2="940" y2="278" stroke="#171717" stroke-width="2"/><line x1="910" y1="473" x2="940" y2="473" stroke="#171717" stroke-width="2"/><text x="951" y="375.5" font-size="24" font-weight="700" fill="#171717" text-anchor="start" transform="rotate(-90 951 375.5)">195 mm cavity height</text><line x1="1330" y1="376" x2="1330" y2="825" stroke="#171717" stroke-width="2" marker-start="url(#arrow)" marker-end="url(#arrow)"/><line x1="1315" y1="376" x2="1345" y2="376" stroke="#171717" stroke-width="2"/><line x1="1315" y1="825" x2="1345" y2="825" stroke="#171717" stroke-width="2"/><text x="1356" y="600.5" font-size="24" font-weight="700" fill="#171717" text-anchor="start" transform="rotate(-90 1356 600.5)">1500 mm FFL center</text><line x1="570" y1="473" x2="570" y2="640" stroke="#171717" stroke-width="2" marker-start="url(#arrow)" marker-end="url(#arrow)"/><line x1="555" y1="473" x2="585" y2="473" stroke="#171717" stroke-width="2"/><line x1="555" y1="640" x2="585" y2="640" stroke="#171717" stroke-width="2"/><text x="544" y="556.5" font-size="24" font-weight="700" fill="#171717" text-anchor="end" transform="rotate(-90 544 556.5)">~200 mm clear gap</text><line x1="750" y1="376" x2="1038" y2="350" stroke="#171717" stroke-width="2" marker-end="url(#dot)"/><rect x="1054" y="322" width="193.3" height="69.03999999999999" fill="#fffdf8" stroke="#171717" stroke-width="2" rx="8"/><text x="1072" y="355" font-size="22" font-weight="600" fill="#171717" >Screen center</text><text x="1072" y="380.08" font-size="22" font-weight="600" fill="#171717" >1500 mm FFL</text><line x1="750" y1="695" x2="1034" y2="690" stroke="#171717" stroke-width="2" marker-end="url(#dot)"/><rect x="1050" y="662" width="253.8" height="69.03999999999999" fill="#fffdf8" stroke="#171717" stroke-width="2" rx="8"/><text x="1068" y="695" font-size="22" font-weight="600" fill="#171717" >Existing 2M</text><text x="1068" y="720.08" font-size="22" font-weight="600" fill="#171717" >stair light switch</text><line x1="414" y1="538" x2="118" y2="540" stroke="#171717" stroke-width="2" marker-end="url(#dot)"/><rect x="134" y="512" width="241.70000000000002" height="69.03999999999999" fill="#fffdf8" stroke="#171717" stroke-width="2" rx="8"/><text x="152" y="545" font-size="22" font-weight="600" fill="#171717" >25 mm grey PVC</text><text x="152" y="570.08" font-size="22" font-weight="600" fill="#171717" >C-Niche-Waveshare</text><rect x="1008" y="504" width="302.20000000000005" height="69.03999999999999" fill="#fffdf8" stroke="#171717" stroke-width="2" rx="8"/><text x="1026" y="537" font-size="22" font-weight="600" fill="#171717" >Align cavity center</text><text x="1026" y="562.08" font-size="22" font-weight="600" fill="#171717" >with switch centerline</text>
<text x="1500" y="950" text-anchor="end" font-size="22" font-weight="600" fill="#5e5b55">Waveshare 10.1 in staircase panel install</text>
</svg>