<?xml version="1.0" encoding="UTF-8"?>
<svg xmlns="http://www.w3.org/2000/svg" width="1600" height="1000" viewBox="0 0 1600 1000">
<defs>
  <marker id="arrow" markerWidth="12" markerHeight="12" refX="6" refY="6" orient="auto-start-reverse">
    <path d="M 0 0 L 12 6 L 0 12 z" fill="#171717"/>
  </marker>
  <marker id="dot" markerWidth="8" markerHeight="8" refX="4" refY="4">
    <circle cx="4" cy="4" r="3" fill="#171717"/>
  </marker>
  <filter id="softShadow" x="-20%" y="-20%" width="140%" height="140%">
    <feDropShadow dx="0" dy="10" stdDeviation="7" flood-color="#000" flood-opacity="0.14"/>
  </filter>
  <pattern id="woodGrain" width="90" height="26" patternUnits="userSpaceOnUse">
    <rect width="90" height="26" fill="#8a5633"/>
    <path d="M4 8 C25 2, 48 14, 88 7 M0 21 C25 15, 53 27, 92 19" fill="none" stroke="#a66c42" stroke-width="3" opacity="0.6"/>
  </pattern>
  <style>
    svg { background: #fffdf8; font-family: Inter, Avenir, Helvetica, Arial, sans-serif; }
    rect, path, line, circle, ellipse, polyline, polygon { vector-effect: non-scaling-stroke; }
  </style>
</defs>
<rect x="0" y="0" width="1600" height="1000" fill="#fffdf8" stroke="none"/>
<circle cx="92" cy="86" r="42" fill="#bf8a2c" stroke="#171717" stroke-width="3"/><text x="92" y="99" font-size="42" font-weight="800" fill="#fffdf8" text-anchor="middle">4</text><text x="158" y="75" font-size="42" font-weight="800" fill="#171717" >Bezel + Sub-Frame</text><text x="160" y="112" font-size="23" font-weight="600" fill="#5e5b55" >For carpenter</text>
<rect x="145" y="280" width="405" height="320" fill="#eadfce" stroke="#171717" stroke-width="3" rx="2"/><rect x="207" y="330" width="280" height="195" fill="#f4ecdf" stroke="#171717" stroke-width="3"/><rect x="625" y="305" width="300" height="220" fill="#c79b63" stroke="#171717" stroke-width="3" rx="8" filter="url(#softShadow)"/><rect x="646" y="330" width="258" height="170" fill="#eee1cb" stroke="#171717" stroke-width="2" rx="5"/><circle cx="662" cy="346" r="10" fill="#bf8a2c" stroke="#171717" stroke-width="2"/><circle cx="888" cy="346" r="10" fill="#bf8a2c" stroke="#171717" stroke-width="2"/><circle cx="662" cy="484" r="10" fill="#bf8a2c" stroke="#171717" stroke-width="2"/><circle cx="888" cy="484" r="10" fill="#bf8a2c" stroke="#171717" stroke-width="2"/><text x="775" y="561" font-size="24" font-weight="800" fill="#171717" text-anchor="middle">plywood sub-frame</text><rect x="957" y="324" width="258" height="170" fill="#1f2933" stroke="#171717" stroke-width="3" rx="12" filter="url(#softShadow)"/><rect x="977" y="340" width="219" height="138" fill="#e8f3f5" stroke="#171717" stroke-width="2"/><text x="1086" y="411" font-size="31" font-weight="800" fill="#6f94aa" text-anchor="middle">Home</text><text x="1086" y="448" font-size="31" font-weight="800" fill="#6f94aa" text-anchor="middle">Assistant</text><rect x="1175" y="286" width="320" height="235" fill="url(#woodGrain)" stroke="#171717" stroke-width="3" rx="10" filter="url(#softShadow)"/><rect x="1225" y="333" width="220" height="140" fill="#fffdf8" stroke="#171717" stroke-width="3" rx="3"/><line x1="1215" y1="308" x2="1455" y2="308" stroke="#e3b076" stroke-width="4" stroke-linecap="round" stroke-dasharray="28 14"/><line x1="1215" y1="499" x2="1455" y2="499" stroke="#e3b076" stroke-width="4" stroke-linecap="round" stroke-dasharray="28 14"/><circle cx="1460" cy="493" r="9" fill="#bf8a2c" stroke="#171717" stroke-width="2"/><line x1="528" y1="430" x2="606" y2="430" stroke="#171717" stroke-width="3" marker-end="url(#arrow)"/><line x1="925" y1="430" x2="950" y2="430" stroke="#171717" stroke-width="3" marker-end="url(#arrow)"/><line x1="1215" y1="430" x2="1168" y2="430" stroke="#171717" stroke-width="3" marker-end="url(#arrow)"/><line x1="1175" y1="250" x2="1495" y2="250" stroke="#171717" stroke-width="2" marker-start="url(#arrow)" marker-end="url(#arrow)"/><line x1="1175" y1="235" x2="1175" y2="265" stroke="#171717" stroke-width="2"/><line x1="1495" y1="235" x2="1495" y2="265" stroke="#171717" stroke-width="2"/><text x="1335" y="234" font-size="24" font-weight="700" fill="#171717" text-anchor="middle">320 mm bezel external</text><line x1="1518" y1="286" x2="1518" y2="521" stroke="#171717" stroke-width="2" marker-start="url(#arrow)" marker-end="url(#arrow)"/><line x1="1503" y1="286" x2="1533" y2="286" stroke="#171717" stroke-width="2"/><line x1="1503" y1="521" x2="1533" y2="521" stroke="#171717" stroke-width="2"/><text x="1544" y="403.5" font-size="24" font-weight="700" fill="#171717" text-anchor="start" transform="rotate(-90 1544 403.5)">235 mm</text><line x1="1225" y1="560" x2="1445" y2="560" stroke="#171717" stroke-width="2" marker-start="url(#arrow)" marker-end="url(#arrow)"/><line x1="1225" y1="545" x2="1225" y2="575" stroke="#171717" stroke-width="2"/><line x1="1445" y1="545" x2="1445" y2="575" stroke="#171717" stroke-width="2"/><text x="1335" y="596" font-size="24" font-weight="700" fill="#171717" text-anchor="middle">220 mm window</text><line x1="1150" y1="333" x2="1150" y2="473" stroke="#171717" stroke-width="2" marker-start="url(#arrow)" marker-end="url(#arrow)"/><line x1="1135" y1="333" x2="1165" y2="333" stroke="#171717" stroke-width="2"/><line x1="1135" y1="473" x2="1165" y2="473" stroke="#171717" stroke-width="2"/><text x="1124" y="403" font-size="24" font-weight="700" fill="#171717" text-anchor="end" transform="rotate(-90 1124 403)">140 mm</text><line x1="347" y1="330" x2="276" y2="300" stroke="#171717" stroke-width="2" marker-end="url(#dot)"/><rect x="70" y="238" width="241.70000000000002" height="69.03999999999999" fill="#fffdf8" stroke="#171717" stroke-width="2" rx="8"/><text x="88" y="271" font-size="22" font-weight="600" fill="#171717" >Cavity hidden by</text><text x="88" y="296.08" font-size="22" font-weight="600" fill="#171717" >20-25 mm overhang</text><line x1="665" y1="347" x2="520" y2="190" stroke="#171717" stroke-width="2" marker-end="url(#dot)"/><rect x="230" y="162" width="181.20000000000002" height="69.03999999999999" fill="#fffdf8" stroke="#171717" stroke-width="2" rx="8"/><text x="248" y="195" font-size="22" font-weight="600" fill="#171717" >4 x M3 brass</text><text x="248" y="220.07999999999998" font-size="22" font-weight="600" fill="#171717" >standoffs</text><line x1="1085" y1="326" x2="970" y2="210" stroke="#171717" stroke-width="2" marker-end="url(#dot)"/><rect x="680" y="182" width="290.1" height="69.03999999999999" fill="#fffdf8" stroke="#171717" stroke-width="2" rx="8"/><text x="698" y="215" font-size="22" font-weight="600" fill="#171717" >Screen case</text><text x="698" y="240.07999999999998" font-size="22" font-weight="600" fill="#171717" >257.6 x 169.7 x 22 mm</text><line x1="1340" y1="308" x2="1330" y2="654" stroke="#171717" stroke-width="2" marker-end="url(#dot)"/><rect x="1346" y="626" width="217.50000000000003" height="69.03999999999999" fill="#fffdf8" stroke="#171717" stroke-width="2" rx="8"/><text x="1364" y="659" font-size="22" font-weight="600" fill="#171717" >Slim vent slots</text><text x="1364" y="684.08" font-size="22" font-weight="600" fill="#171717" >top + bottom</text>
<text x="1500" y="950" text-anchor="end" font-size="22" font-weight="600" fill="#5e5b55">Waveshare 10.1 in staircase panel install</text>
</svg>