<?xml version="1.0" encoding="UTF-8"?>
<svg xmlns="http://www.w3.org/2000/svg" width="1600" height="1000" viewBox="0 0 1600 1000">
<defs>
  <marker id="arrow" markerWidth="12" markerHeight="12" refX="6" refY="6" orient="auto-start-reverse">
    <path d="M 0 0 L 12 6 L 0 12 z" fill="#171717"/>
  </marker>
  <marker id="dot" markerWidth="8" markerHeight="8" refX="4" refY="4">
    <circle cx="4" cy="4" r="3" fill="#171717"/>
  </marker>
  <filter id="softShadow" x="-20%" y="-20%" width="140%" height="140%">
    <feDropShadow dx="0" dy="10" stdDeviation="7" flood-color="#000" flood-opacity="0.14"/>
  </filter>
  <pattern id="woodGrain" width="90" height="26" patternUnits="userSpaceOnUse">
    <rect width="90" height="26" fill="#8a5633"/>
    <path d="M4 8 C25 2, 48 14, 88 7 M0 21 C25 15, 53 27, 92 19" fill="none" stroke="#a66c42" stroke-width="3" opacity="0.6"/>
  </pattern>
  <style>
    svg { background: #fffdf8; font-family: Inter, Avenir, Helvetica, Arial, sans-serif; }
    rect, path, line, circle, ellipse, polyline, polygon { vector-effect: non-scaling-stroke; }
  </style>
</defs>
<rect x="0" y="0" width="1600" height="1000" fill="#fffdf8" stroke="none"/>
<circle cx="92" cy="86" r="42" fill="#bf8a2c" stroke="#171717" stroke-width="3"/><text x="92" y="99" font-size="42" font-weight="800" fill="#fffdf8" text-anchor="middle">5</text><text x="158" y="75" font-size="42" font-weight="800" fill="#171717" >Magnets + NFC</text><text x="160" y="112" font-size="23" font-weight="600" fill="#5e5b55" >For carpenter + electrician</text>
<rect x="205" y="270" width="520" height="410" fill="#eadfce" stroke="#171717" stroke-width="3" rx="2" filter="url(#softShadow)"/><rect x="314" y="346" width="280" height="195" fill="#f4ecdf" stroke="#171717" stroke-width="3"/><rect x="333" y="365" width="48" height="30" fill="#9aa1a7" stroke="#171717" stroke-width="2" rx="3"/><rect x="527" y="365" width="48" height="30" fill="#9aa1a7" stroke="#171717" stroke-width="2" rx="3"/><rect x="333" y="492" width="48" height="30" fill="#9aa1a7" stroke="#171717" stroke-width="2" rx="3"/><rect x="527" y="492" width="48" height="30" fill="#9aa1a7" stroke="#171717" stroke-width="2" rx="3"/><rect x="900" y="246" width="390" height="300" fill="#c79b63" stroke="#171717" stroke-width="3" rx="10" filter="url(#softShadow)"/><rect x="958" y="305" width="258" height="170" fill="#ead8bc" stroke="#171717" stroke-width="2" rx="5"/><rect x="918" y="265" width="44" height="44" fill="#343434" stroke="#171717" stroke-width="2" rx="5"/><rect x="1228" y="265" width="44" height="44" fill="#343434" stroke="#171717" stroke-width="2" rx="5"/><rect x="918" y="484" width="44" height="44" fill="#343434" stroke="#171717" stroke-width="2" rx="5"/><rect x="1228" y="484" width="44" height="44" fill="#343434" stroke="#171717" stroke-width="2" rx="5"/><text x="940" y="294" font-size="21" font-weight="900" fill="#fffdf8" text-anchor="middle">N</text><text x="1250" y="294" font-size="21" font-weight="900" fill="#fffdf8" text-anchor="middle">N</text><text x="940" y="513" font-size="21" font-weight="900" fill="#fffdf8" text-anchor="middle">N</text><text x="1250" y="513" font-size="21" font-weight="900" fill="#fffdf8" text-anchor="middle">N</text><rect x="1130" y="430" width="108" height="74" fill="#171717" stroke="#171717" stroke-width="3" rx="8"/><text x="1184" y="474" font-size="20" font-weight="800" fill="#fffdf8" text-anchor="middle">ACR122U</text><circle cx="1249" cy="496" r="11" fill="#bf8a2c" stroke="#171717" stroke-width="2"/><line x1="381" y1="380" x2="918" y2="287" stroke="#171717" stroke-width="2" stroke-dasharray="9 10"/><line x1="575" y1="380" x2="1228" y2="287" stroke="#171717" stroke-width="2" stroke-dasharray="9 10"/><line x1="381" y1="507" x2="918" y2="506" stroke="#171717" stroke-width="2" stroke-dasharray="9 10"/><line x1="575" y1="507" x2="1228" y2="506" stroke="#171717" stroke-width="2" stroke-dasharray="9 10"/><rect x="900" y="642" width="390" height="175" fill="url(#woodGrain)" stroke="#171717" stroke-width="3" rx="10"/><rect x="984" y="674" width="220" height="96" fill="#fffdf8" stroke="#171717" stroke-width="3" rx="3"/><circle cx="1249" cy="779" r="11" fill="#bf8a2c" stroke="#171717" stroke-width="2"/><text x="1095" y="845" font-size="23" font-weight="800" fill="#5e5b55" text-anchor="middle">front face</text><line x1="355" y1="380" x2="274" y2="330" stroke="#171717" stroke-width="2" marker-end="url(#dot)"/><rect x="78" y="286" width="265.9" height="69.03999999999999" fill="#fffdf8" stroke="#171717" stroke-width="2" rx="8"/><text x="96" y="319" font-size="22" font-weight="600" fill="#171717" >Steel strike plates</text><text x="96" y="344.08" font-size="22" font-weight="600" fill="#171717" >inside cavity</text><line x1="940" y1="287" x2="745" y2="175" stroke="#171717" stroke-width="2" marker-end="url(#dot)"/><rect x="455" y="147" width="229.60000000000002" height="69.03999999999999" fill="#fffdf8" stroke="#171717" stroke-width="2" rx="8"/><text x="473" y="180" font-size="22" font-weight="600" fill="#171717" >4 hidden magnets</text><text x="473" y="205.07999999999998" font-size="22" font-weight="600" fill="#171717" >10 x 10 x 3 mm</text><line x1="1185" y1="468" x2="1322" y2="392" stroke="#171717" stroke-width="2" marker-end="url(#dot)"/><rect x="1338" y="364" width="253.8" height="69.03999999999999" fill="#fffdf8" stroke="#171717" stroke-width="2" rx="8"/><text x="1356" y="397" font-size="22" font-weight="600" fill="#171717" >USB NFC reader</text><text x="1356" y="422.08" font-size="22" font-weight="600" fill="#171717" >behind lower-right</text><line x1="1249" y1="779" x2="1322" y2="755" stroke="#171717" stroke-width="2" marker-end="url(#dot)"/><rect x="1338" y="727" width="217.50000000000003" height="69.03999999999999" fill="#fffdf8" stroke="#171717" stroke-width="2" rx="8"/><text x="1356" y="760" font-size="22" font-weight="600" fill="#171717" >Brass dot marks</text><text x="1356" y="785.08" font-size="22" font-weight="600" fill="#171717" >NFC tap point</text><rect x="135" y="735" width="278" height="120.08" fill="#fffdf8" stroke="#171717" stroke-width="2" rx="8"/><text x="153" y="768" font-size="22" font-weight="600" fill="#171717" >Alignment step:</text><text x="153" y="793.08" font-size="22" font-weight="600" fill="#171717" >push frame in place,</text><text x="153" y="818.16" font-size="22" font-weight="600" fill="#171717" >mark plate centers,</text><text x="153" y="843.24" font-size="22" font-weight="600" fill="#171717" >then screw plates</text>
<text x="1500" y="950" text-anchor="end" font-size="22" font-weight="600" fill="#5e5b55">Waveshare 10.1 in staircase panel install</text>
</svg>